<?xml version="1.0" encoding="UTF-8" standalone="no"?>
<!DOCTYPE svg PUBLIC "-//W3C//DTD SVG 1.1//EN" "http://www.w3.org/Graphics/SVG/1.1/DTD/svg11.dtd">
<svg version="1.1" xmlns="http://www.w3.org/2000/svg" xmlns:xlink="http://www.w3.org/1999/xlink" preserveAspectRatio="xMidYMid meet" viewBox="0 0 300 300" width="300" height="300"><defs><path d="M208.12 76.6L248.19 149.96L168.04 149.96L87.9 149.96L127.97 76.6L168.04 3.23L208.12 76.6Z" id="h6Grxyg9ef"></path><path d="M167.76 76.6L207.84 149.96L127.69 149.96L47.54 149.96L87.61 76.6L127.69 3.23L167.76 76.6Z" id="a28g5rqBbN"></path><path d="M189.77 115.72L229.84 42.36L149.69 42.36L69.55 42.36L109.61 115.72L149.69 189.09L189.77 115.72Z" id="a2r9IPl9Ft"></path><path d="M127.4 149.96L167.48 76.6L87.33 76.6L7.18 76.6L47.25 149.96L87.33 223.33L127.4 149.96Z" id="aEc13N1JD"></path><path d="M248.75 149.96L288.82 76.6L208.67 76.6L128.52 76.6L168.59 149.96L208.67 223.33L248.75 149.96Z" id="f5FZBxTam"></path><path d="M187.32 223.4L227.39 150.04L147.24 150.04L67.1 150.04L107.17 223.4L147.24 296.77L187.32 223.4Z" id="a63ymOMojy"></path><path d="M187.32 187.56L227.39 114.19L147.24 114.19L67.1 114.19L107.17 187.56L147.24 260.92L187.32 187.56Z" id="bCx0Y2FSo"></path><path d="M-209.04 553.55L-165.86 480.19L-252.22 480.19L-338.57 480.19L-295.4 553.55L-252.22 626.92L-209.04 553.55Z" id="dc84RYUnY"></path></defs><g visibility="inherit"><g visibility="inherit"><g visibility="inherit"><g><use xlink:href="#h6Grxyg9ef" opacity="1" fill-opacity="0" stroke="#ffffff" stroke-width="1" stroke-opacity="1"></use></g></g><g visibility="inherit"><g><use xlink:href="#a28g5rqBbN" opacity="1" fill-opacity="0" stroke="#ffffff" stroke-width="1" stroke-opacity="1"></use></g></g><g visibility="inherit"><g><use xlink:href="#a2r9IPl9Ft" opacity="1" fill-opacity="0" stroke="#ffffff" stroke-width="1" stroke-opacity="1"></use></g></g><g visibility="inherit"><g><use xlink:href="#aEc13N1JD" opacity="1" fill-opacity="0" stroke="#ffffff" stroke-width="1" stroke-opacity="1"></use></g></g><g visibility="inherit"><g><use xlink:href="#f5FZBxTam" opacity="1" fill-opacity="0" stroke="#ffffff" stroke-width="1" stroke-opacity="1"></use></g></g><g visibility="inherit"><g><use xlink:href="#a63ymOMojy" opacity="1" fill-opacity="0" stroke="#ffffff" stroke-width="1" stroke-opacity="1"></use></g></g><g visibility="inherit"><g><use xlink:href="#bCx0Y2FSo" opacity="1" fill-opacity="0" stroke="#ffffff" stroke-width="1" stroke-opacity="1"></use></g></g><g visibility="inherit"><g><filter id="shadow13378713" x="-347.57" y="471.19" width="191.71" height="165.74" filterUnits="userSpaceOnUse" primitiveUnits="userSpaceOnUse"><feFlood></feFlood><feComposite in2="SourceAlpha" operator="in"></feComposite><feGaussianBlur stdDeviation="1"></feGaussianBlur><feOffset dx="1" dy="1" result="afterOffset"></feOffset><feFlood flood-color="#1c0460" flood-opacity="0.79"></feFlood><feComposite in2="afterOffset" operator="in"></feComposite><feMorphology operator="dilate" radius="1"></feMorphology><feComposite in2="SourceAlpha" operator="out"></feComposite></filter><path d="M-209.04 553.55L-165.86 480.19L-252.22 480.19L-338.57 480.19L-295.4 553.55L-252.22 626.92L-209.04 553.55Z" id="k4JeeWjIVW" fill="white" fill-opacity="1" filter="url(#shadow13378713)"></path></g><g><use xlink:href="#dc84RYUnY" opacity="1" fill-opacity="0" stroke="#ffffff" stroke-width="1" stroke-opacity="1"></use></g></g></g></g></svg>
