<svg version="1.1" xmlns="http://www.w3.org/2000/svg" xmlns:xlink="http://www.w3.org/1999/xlink" preserveAspectRatio="xMidYMid meet" viewBox="0 0 100 100" width="100" height="100"><defs><path d="M65.69 32.8L76.14 51.94L55.23 51.94L34.32 51.94L44.77 32.8L55.23 13.65L65.69 32.8Z" id="ctBTlfrJv"></path><path d="M55.16 32.8L65.61 51.94L44.7 51.94L23.79 51.94L34.24 32.8L44.7 13.65L55.16 32.8Z" id="b2SW5VmeXe"></path><path d="M60.9 43.01L71.36 23.86L50.44 23.86L29.53 23.86L39.98 43.01L50.44 62.15L60.9 43.01Z" id="aAhLX0Lh2"></path><path d="M44.63 51.94L55.08 32.8L34.17 32.8L13.25 32.8L23.71 51.94L34.17 71.08L44.63 51.94Z" id="aybDrOgox"></path><path d="M76.29 51.94L86.75 32.8L65.83 32.8L44.92 32.8L55.37 51.94L65.83 71.08L76.29 51.94Z" id="e2UEfJxNzx"></path><path d="M60.26 71.1L70.72 51.96L49.8 51.96L28.89 51.96L39.35 71.1L49.8 90.25L60.26 71.1Z" id="bz26fDUsU"></path><path d="M60.26 61.75L70.72 42.6L49.8 42.6L28.89 42.6L39.35 61.75L49.8 80.89L60.26 61.75Z" id="aqtaS1rXk"></path><path d="M-48.14 367.93L-36.87 348.79L-59.4 348.79L-81.94 348.79L-70.67 367.93L-59.4 387.08L-48.14 367.93Z" id="d29Vpoek7F"></path></defs><g visibility="inherit"><g visibility="inherit"><g visibility="inherit"><g><use xlink:href="#ctBTlfrJv" opacity="1" fill-opacity="0" stroke="#E14658" stroke-width="1" stroke-opacity="1"></use></g></g><g visibility="inherit"><g><use xlink:href="#b2SW5VmeXe" opacity="1" fill-opacity="0" stroke="#E14658" stroke-width="1" stroke-opacity="1"></use></g></g><g visibility="inherit"><g><use xlink:href="#aAhLX0Lh2" opacity="1" fill-opacity="0" stroke="#E14658" stroke-width="1" stroke-opacity="1"></use></g></g><g visibility="inherit"><g><use xlink:href="#aybDrOgox" opacity="1" fill-opacity="0" stroke="#E14658" stroke-width="1" stroke-opacity="1"></use></g></g><g visibility="inherit"><g><use xlink:href="#e2UEfJxNzx" opacity="1" fill-opacity="0" stroke="#E14658" stroke-width="1" stroke-opacity="1"></use></g></g><g visibility="inherit"><g><use xlink:href="#bz26fDUsU" opacity="1" fill-opacity="0" stroke="#E14658" stroke-width="1" stroke-opacity="1"></use></g></g><g visibility="inherit"><g><use xlink:href="#aqtaS1rXk" opacity="1" fill-opacity="0" stroke="#E14658" stroke-width="1" stroke-opacity="1"></use></g></g><g visibility="inherit"><g><filter id="shadow6809563" x="-90.94" y="339.79" width="64.07" height="57.29" filterUnits="userSpaceOnUse" primitiveUnits="userSpaceOnUse"><feFlood></feFlood><feComposite in2="SourceAlpha" operator="in"></feComposite><feGaussianBlur stdDeviation="1"></feGaussianBlur><feOffset dx="1" dy="1" result="afterOffset"></feOffset><feFlood flood-color="#1c0460" flood-opacity="0.79"></feFlood><feComposite in2="afterOffset" operator="in"></feComposite><feMorphology operator="dilate" radius="1"></feMorphology><feComposite in2="SourceAlpha" operator="out"></feComposite></filter><path d="M-48.14 367.93L-36.87 348.79L-59.4 348.79L-81.94 348.79L-70.67 367.93L-59.4 387.08L-48.14 367.93Z" id="f2jd3rjvfb" fill="white" fill-opacity="1" filter="url(#shadow6809563)"></path></g><g><use xlink:href="#d29Vpoek7F" opacity="1" fill-opacity="0" stroke="#E14658" stroke-width="1" stroke-opacity="1"></use></g></g></g></g></svg>
