<svg version="1.1" xmlns="http://www.w3.org/2000/svg" xmlns:xlink="http://www.w3.org/1999/xlink" preserveAspectRatio="xMidYMid meet" viewBox="0 0 700 500" width="500" height="500"><defs><path d="M410.85 197.37L450.92 270.74L370.77 270.74L290.63 270.74L330.7 197.37L370.77 124L410.85 197.37Z" id="b1fJU8MV3F"></path><path d="M370.49 197.37L410.56 270.74L330.41 270.74L250.27 270.74L290.34 197.37L330.41 124L370.49 197.37Z" id="d1TLc4i0Ec"></path><path d="M392.49 236.5L432.57 163.13L352.42 163.13L272.27 163.13L312.34 236.5L352.42 309.86L392.49 236.5Z" id="a1v1CVnss"></path><path d="M330.13 270.74L370.2 197.37L290.05 197.37L209.91 197.37L249.98 270.74L290.05 344.1L330.13 270.74Z" id="f13yx6Z9UM"></path><path d="M451.47 270.74L491.55 197.37L411.4 197.37L331.25 197.37L371.32 270.74L411.4 344.1L451.47 270.74Z" id="bc3HeePZ8"></path><path d="M390.05 344.18L430.12 270.81L349.97 270.81L269.83 270.81L309.89 344.18L349.97 417.55L390.05 344.18Z" id="b7V1mPb4b0"></path><path d="M390.05 308.33L430.12 234.96L349.97 234.96L269.83 234.96L309.89 308.33L349.97 381.7L390.05 308.33Z" id="g2v2UpOlrx"></path><path d="M-209.04 553.55L-165.86 480.19L-252.22 480.19L-338.57 480.19L-295.4 553.55L-252.22 626.92L-209.04 553.55Z" id="dc84RYUnY"></path></defs><g visibility="inherit"><g visibility="inherit"><g visibility="inherit"><g><use xlink:href="#b1fJU8MV3F" opacity="1" fill-opacity="0" stroke="#E14658" stroke-width="1" stroke-opacity="1"></use></g></g><g visibility="inherit"><g><use xlink:href="#d1TLc4i0Ec" opacity="1" fill-opacity="0" stroke="#E14658" stroke-width="1" stroke-opacity="1"></use></g></g><g visibility="inherit"><g><use xlink:href="#a1v1CVnss" opacity="1" fill-opacity="0" stroke="#E14658" stroke-width="1" stroke-opacity="1"></use></g></g><g visibility="inherit"><g><use xlink:href="#f13yx6Z9UM" opacity="1" fill-opacity="0" stroke="#E14658" stroke-width="1" stroke-opacity="1"></use></g></g><g visibility="inherit"><g><use xlink:href="#bc3HeePZ8" opacity="1" fill-opacity="0" stroke="#E14658" stroke-width="1" stroke-opacity="1"></use></g></g><g visibility="inherit"><g><use xlink:href="#b7V1mPb4b0" opacity="1" fill-opacity="0" stroke="#E14658" stroke-width="1" stroke-opacity="1"></use></g></g><g visibility="inherit"><g><use xlink:href="#g2v2UpOlrx" opacity="1" fill-opacity="0" stroke="#E14658" stroke-width="1" stroke-opacity="1"></use></g></g><g visibility="inherit"><g><filter id="shadow13378713" x="-347.57" y="471.19" width="191.71" height="165.74" filterUnits="userSpaceOnUse" primitiveUnits="userSpaceOnUse"><feFlood></feFlood><feComposite in2="SourceAlpha" operator="in"></feComposite><feGaussianBlur stdDeviation="1"></feGaussianBlur><feOffset dx="1" dy="1" result="afterOffset"></feOffset><feFlood flood-color="#1c0460" flood-opacity="0.79"></feFlood><feComposite in2="afterOffset" operator="in"></feComposite><feMorphology operator="dilate" radius="1"></feMorphology><feComposite in2="SourceAlpha" operator="out"></feComposite></filter><path d="M-209.04 553.55L-165.86 480.19L-252.22 480.19L-338.57 480.19L-295.4 553.55L-252.22 626.92L-209.04 553.55Z" id="k4JeeWjIVW" fill="white" fill-opacity="1" filter="url(#shadow13378713)"></path></g><g><use xlink:href="#dc84RYUnY" opacity="1" fill-opacity="0" stroke="#E14658" stroke-width="1" stroke-opacity="1"></use></g></g></g></g></svg>
